<?xml version="1.0" encoding="UTF-8"?>
<!DOCTYPE svg PUBLIC "-//W3C//DTD SVG 1.1//EN" "http://www.w3.org/Graphics/SVG/1.1/DTD/svg11.dtd">
<!-- Creator: CorelDRAW -->
<svg xmlns="http://www.w3.org/2000/svg" width="90" height="30" xml:space="preserve"  style="shape-rendering:geometricPrecision; text-rendering:geometricPrecision; image-rendering:optimizeQuality; fill-rule:evenodd; clip-rule:evenodd"
viewBox="0 0 163 140"
 xmlns:xlink="http://www.w3.org/1999/xlink">
 <defs>
  <style type="text/css">
   <![CDATA[
    .fil0 {fill:#dadada}
   ]]>
  </style>
 </defs>
 <g id="Layer_x0020_1">
  <metadata id="CorelCorpID_0Corel-Layer"/>
  <path class="fil0" d="M17 138.328l 0 -40.586 0 -24.6305 -5.5699 4.5664 -11.4503 -16.3284 78.5277 -60.6773 23.8006 18.3345 0 -18.3345 21.5171 0 0 35.1471 32.9334 25.5302 -11.4507 16.3284 -5.5695 -4.5664 0 24.6305 0 0 0 40.586zm133.9 -75.667l-30.5117 -23.9044 0 -33.9708 -14.9102 0 0 22.5205 -26.9484 -21.2061 -72.6816 56.5608 6.6077 9.4441 8.7176 -7.2994 0 68.807 22.0707 0 0 -56.1457 27.4673 0 0 56.1457 64.8633 0 0 -68.807 8.7176 7.2994 6.6077 -9.4441zm-28.0904 48.4659l-36.0812 0 0 -33.6599 36.0812 0 0 33.6599zm-4 -4l-28 0 0 -26 28 0 0 30zm-52.1 -25.9l-19.9 0, 0 52.2, 20 0, 0 -53.5zm -3 25l -4 0, 0 4, 4 0z"/>
 </g>
</svg>
