<svg xmlns:dc="http://purl.org/dc/elements/1.1/" xmlns:cc="http://web.resource.org/cc/" xmlns:rdf="http://www.w3.org/1999/02/22-rdf-syntax-ns#" xmlns:svg="http://www.w3.org/2000/svg" xmlns="http://www.w3.org/2000/svg" xmlns:sodipodi="http://sodipodi.sourceforge.net/DTD/sodipodi-0.dtd" xmlns:inkscape="http://www.inkscape.org/namespaces/inkscape" version="1.0" width="601" height="601" viewBox="0 0 600 599.99902" id="Layer_1" xml:space="preserve" xmlns:xml="http://www.w3.org/XML/1998/namespace" sodipodi:version="0.32" inkscape:version="0.45" sodipodi:docname="I-4.svg" sodipodi:docbase="C:\Documents and Settings\ltljltlj\Desktop\Signs\Interstate Shields" inkscape:output_extension="org.inkscape.output.svg.inkscape" sodipodi:modified="true"><metadata id="metadata36"><rdf:RDF><cc:Work rdf:about=""><dc:format>image/svg+xml</dc:format><dc:type rdf:resource="http://purl.org/dc/dcmitype/StillImage"/></cc:Work></rdf:RDF></metadata><sodipodi:namedview inkscape:window-height="968" inkscape:window-width="1280" inkscape:pageshadow="2" inkscape:pageopacity="0.0" guidetolerance="10.0" gridtolerance="10.0" objecttolerance="10.0" borderopacity="1.0" bordercolor="#666666" pagecolor="#ffffff" id="base" width="601px" height="601px" inkscape:zoom="1.2845255" inkscape:cx="300.49997" inkscape:cy="299.49944" inkscape:window-x="-4" inkscape:window-y="-4" inkscape:current-layer="Layer_1"/><defs id="defs1659">
	
	
	
	
</defs>
<g transform="matrix(0.9983361,0,0,0.9983377,0.4991681,0.4986859)" style="fill:#ffffff;fill-opacity:1;stroke: none;/* stroke-width:0.99999928; *//* stroke-miterlimit:4; *//* stroke-dasharray:none; *//* stroke-opacity:1 */" id="g1600">
		<path id="path1602" style="/* fill:#ffffff; *//* fill-opacity:1; *//* stroke:#000000; *//* stroke-width:0.99999928; *//* stroke-miterlimit:4; *//* stroke-dasharray:none; *//* stroke-opacity:1 */" d="M 80.75293,0 C 115.42871,10.583496 152.23779,16.276856 190.37695,16.276856 C 228.51563,16.276856 265.32422,10.583496 300,0.0004883 C 334.67578,10.583496 371.48438,16.276856 409.62305,16.276856 C 447.76172,16.276856 484.57129,10.583496 519.24707,0 C 569.8125,63.908203 600,144.67822 600,232.5 C 600,413.92383 471.16992,565.25391 300,599.99902 C 128.83008,565.25391 0,413.92383 0,232.5 C 0,144.67822 30.187988,63.907715 80.75293,0 z "/>
		
			<path id="path1604" style="/* fill:#ffffff; *//* fill-opacity:1; *//* stroke:#000000; *//* stroke-width:0.99999928; *//* stroke-linecap:round; *//* stroke-linejoin:round; *//* stroke-miterlimit:4; *//* stroke-dasharray:none; *//* stroke-opacity:1 */" d="M 80.75293,0 C 115.42871,10.583496 152.23779,16.276856 190.37695,16.276856 C 228.51563,16.276856 265.32422,10.583496 300,0.0004883 C 334.67578,10.583496 371.48438,16.276856 409.62305,16.276856 C 447.76172,16.276856 484.57129,10.583496 519.24707,0 C 569.8125,63.908203 600,144.67822 600,232.5 C 600,413.92383 471.16992,565.25391 300,599.99902 C 128.83008,565.25391 0,413.92383 0,232.5 C 0,144.67822 30.187988,63.907715 80.75293,0 z "/>
	</g><g style="fill:#003f87;fill-opacity:1;stroke:none;/* stroke-opacity:1 */" transform="matrix(1.0070935,0,0,1.0102847,-2.1280324,-3.66885)" id="g1606">
		<path id="path1608" style="/* fill:#003f87; *//* fill-opacity:1; *//* stroke:none; *//* stroke-opacity:1 */" d="M 15,232.5 C 15,200.521 19.169434,169.51611 26.994629,139.99902 L 573.00586,139.99902 C 580.83008,169.51611 585,200.521 585,232.5 C 585,405.60547 462.82617,550.17188 300,584.67676 C 137.17432,550.17188 15,405.60547 15,232.5 z "/>
	</g><g style="fill:#af1e2d;fill-opacity:1;stroke:none;/* stroke-opacity:1 */" transform="matrix(1.0125461,0,0,1.0271486,-3.7638021,-3.1017482)" id="g1610">
		<path id="path1612" style="/* fill:#af1e2d; *//* fill-opacity:1; *//* stroke:none; *//* stroke-opacity:1 */" d="M 31.324219,124.99902 C 43.579102,85.77832 62.362793,49.44043 86.402832,17.259766 C 119.50439,26.392578 154.37061,31.272461 190.37695,31.272461 C 228.4375,31.272461 265.22461,25.820801 300,15.654785 C 334.77539,25.820801 371.5625,31.272461 409.62305,31.272461 C 445.62891,31.272461 480.49609,26.392578 513.59766,17.259766 C 537.63672,49.44043 556.4209,85.77832 568.67578,124.99902 L 31.324219,124.99902 L 31.324219,124.99902 z "/>
	</g>




<path transform="scale(0.9999958,1.0000042)" style="/* font-size:372.50445557px; *//* font-style:normal; *//* font-variant:normal; *//* font-weight:normal; */font-stretch:normal;/* text-align:center; *//* line-height:125%; *//* writing-mode:lr-tb; *//* text-anchor:middle; */fill:#ffffff;/* fill-opacity:1; */font-family:Roadgeek 2005 Series D" d="M 384.93112,348.37662 C 384.93092,362.28347 382.26135,375.07427 376.92241,386.74908 C 371.58309,398.42399 364.07078,408.60586 354.38548,417.29471 C 344.69984,425.98362 333.21445,432.74943 319.92927,437.59216 C 306.64383,442.4349 292.05499,444.85627 276.16272,444.85627 C 265.23428,444.85627 254.49348,443.61527 243.94032,441.13327 C 233.38704,438.65127 223.7641,435.17458 215.07145,430.70319 L 234.44241,395.68996 C 239.65645,398.4183 246.48478,400.58958 254.92742,402.20378 C 263.36994,403.81807 272.18387,404.62519 281.36924,404.62515 C 290.31191,404.62519 298.69386,403.19851 306.51511,400.34512 C 314.33612,397.49182 321.16635,393.58125 327.00581,388.61342 C 332.845,383.64569 337.37701,377.74763 340.60186,370.91923 C 343.82641,364.09097 345.43876,356.57677 345.43891,348.37662 C 345.43876,342.16982 344.26028,336.45934 341.90349,331.24514 C 339.54639,326.03116 336.31979,321.43663 332.22369,317.46152 C 328.12731,313.48666 323.40962,310.38132 318.07061,308.1455 C 312.73135,305.90994 306.95455,304.79209 300.7402,304.79196 C 296.27628,304.79209 292.36761,305.16534 289.01417,305.9117 C 285.66054,306.65833 282.49268,308.02437 279.51058,310.00984 C 276.52831,311.99557 273.54802,314.66513 270.5697,318.01855 C 267.59123,321.37221 264.23769,325.65602 260.50908,330.87 L 221.02825,319.69532 L 227.36018,190.80568 L 370.77804,190.80568 L 370.77804,230.29789 L 265.72696,230.29789 L 263.1237,271.26792 C 272.30891,268.53979 279.5086,266.67924 284.72278,265.68626 C 289.93677,264.69364 295.65105,264.19724 301.86562,264.19707 C 313.28648,264.19724 324.02538,266.43104 334.08235,270.89846 C 344.13903,275.36623 352.95485,281.44996 360.52985,289.14968 C 368.1045,296.8497 374.06508,305.79058 378.41161,315.97232 C 382.75775,326.15431 384.93092,336.95573 384.93112,348.37662 L 384.93112,348.37662 z " id="text5085"/>

</svg>