<svg xmlns="http://www.w3.org/2000/svg" xmlns:xlink="http://www.w3.org/1999/xlink" xmlns:a="http://ns.adobe.com/AdobeSVGViewerExtensions/3.0/" width="600" height="600" viewBox="0 0 600 600" style="overflow:visible;enable-background:new 0 0 600 600" xml:space="preserve" xmlns:xml="http://www.w3.org/XML/1998/namespace">
	<g id="Layer_1">
		<g id="Shield_38_">
			
			<path id="Head_1_" style="fill:#FFFFFF;stroke: black;stroke-width: 15;" d="M69.375,304.5C58.5,303.375,40.86,310.506,36,297.75     c-3-7.875,21.964-71.769,34.875-84C78,207,66.352,190.588,72,180c22.21-41.643,24.129-50.279,42.363-81.952     c2.877-4.995,17.584-16.603,23.036-23.991C142.195,65.417,154.022,44.804,162,42c42.58-14.971,80.971-27.448,138.554-27.448     c66.226,0,127.89,24.047,160.444,74.449C492,137.001,492,168.999,505.002,207c6.551,19.14,34.482,47.2,42,66     c9.996,24.999-1.189,66.832-9,76.002c-23.004,27-67.096,50.338-74.004,63c-6,10.998-0.029,41.988,14.004,48     c22.002-6.996,24.996-18,43.998-15c-10.998,21-6.967,29.607-9,36c-7.002,21.996-15.762,16.834-15,28.998     c1.002,16.002,58.998,31.998,61.002,79.002H69.999c42-63,72.882-60.434,104.001-116.004c12.741-22.752,0.003-38.566-24.75-44.748     c-29.637-7.4-82.875-3.375-87.375-28.5c-2.186-12.205,9.75-23.625,10.125-37.5c0.234-8.631-6.75-18.375-6.75-18.375     S71.25,316.5,69.375,304.5z"/>
		</g>
		<g>
			<path d="M220.04,321.617c0,10.178-1.535,19.588-4.6,28.225s-7.277,16.125-12.639,22.459s-11.689,11.326-18.984,14.971     s-15.264,5.473-23.9,5.473c-8.643,0-16.945-1.441-24.914-4.307c-7.969-2.871-15.504-7.084-22.605-12.639l18.146-19.559     c4.793,3.264,9.211,5.666,13.242,7.201s8.449,2.303,13.254,2.303c5.18,0,9.979-1.102,14.396-3.305s8.209-5.32,11.379-9.352     c3.164-4.031,5.66-8.824,7.488-14.391c1.822-5.561,2.736-11.701,2.736-18.416c0-10.547-2.402-18.791-7.201-24.738     c-4.805-5.947-11.232-8.924-19.295-8.924c-8.449,0-16.131,3.17-23.045,9.504l-26.49-3.457l4.893-96.047h90.668v27h-65.033     l-2.016,40.424c4.793-1.734,8.684-2.842,11.66-3.322s6.287-0.727,9.938-0.727c7.869,0,15.064,1.488,21.592,4.465     c6.521,2.977,12.082,7.201,16.676,12.674s8.186,11.947,10.775,19.436C218.745,304.057,220.04,312.406,220.04,321.617z"/>
			<path d="M350.789,337.162c0,7.875-1.348,15.217-4.031,22.031c-2.684,6.82-6.375,12.721-11.074,17.713     s-10.359,8.883-16.978,11.666c-6.621,2.777-13.764,4.172-21.439,4.172c-7.863,0-15.012-1.342-21.439-4.02     c-6.428-2.684-11.994-6.416-16.693-11.203s-8.443-10.482-11.221-17.092c-2.783-6.604-4.365-13.834-4.746-21.686h27     c0.762,7.852,3.586,14.314,8.473,19.389c4.881,5.074,11.057,7.611,18.527,7.611c7.852,0,14.314-2.73,19.389-8.203     c5.077-5.467,7.608-12.229,7.608-20.291c0-5.18-0.656-10.02-1.969-14.531c-1.31-4.512-3.12-8.443-5.417-11.807     c-2.303-3.357-4.939-5.994-7.916-7.916c-2.977-1.916-6.193-2.877-9.645-2.877h-13.535v-26.625h11.52     c3.451,0,6.088-0.574,7.916-1.729c1.822-1.148,3.885-3.07,6.193-5.766c5.566-6.152,8.355-13.359,8.355-21.627     c0-7.494-2.068-13.453-6.193-17.871c-4.131-4.418-9.557-6.633-16.271-6.633c-6.146,0-10.998,1.775-14.549,5.326     s-5.713,8.59-6.475,15.117l-27.076-3.451c0.768-6.334,2.496-12.234,5.186-17.701c2.684-5.461,6.141-10.107,10.365-13.939     s9.123-6.844,14.689-9.047s11.52-3.305,17.859-3.305c6.908,0,13.342,1.248,19.301,3.744c5.95,2.496,11.095,6,15.419,10.512     s7.746,9.797,10.242,15.844s3.75,12.527,3.75,19.436c0,8.068-1.301,15.557-3.891,22.471s-7.148,14.109-13.676,21.598     c7.488,6.721,13.102,14.402,16.84,23.039C348.926,318.154,350.789,327.371,350.789,337.162z"/>
			<path d="M493.16,292.52c0,14.789-0.82,27.363-2.449,37.729c-1.629,10.371-4.465,20.162-8.496,29.373     c-4.805,11.525-10.805,19.928-18.012,25.207c-7.207,5.273-16.289,7.916-27.234,7.916c-11.531,0-20.895-2.643-28.102-7.916     c-7.207-5.279-13.207-13.682-18-25.207c-4.043-9.404-6.879-19.242-8.508-29.514s-2.449-22.799-2.449-37.588     c0-14.59,0.82-27.117,2.449-37.582s4.465-20.303,8.508-29.525c4.992-11.52,11.086-19.822,18.293-24.908     s16.477-7.635,27.809-7.635c11.145,0,20.262,2.549,27.375,7.635s13.066,13.582,17.871,25.488     c1.922,4.799,3.598,9.598,5.039,14.396c1.441,4.805,2.59,9.844,3.457,15.123s1.488,10.945,1.875,16.992     S493.16,285.225,493.16,292.52z M466.535,292.52c0-5.379-0.141-10.283-0.434-14.701c-0.281-4.418-0.668-8.502-1.148-12.252     s-1.102-7.354-1.863-10.811s-1.629-6.92-2.578-10.383c-2.496-8.648-5.602-14.895-9.34-18.738     c-3.727-3.844-8.461-5.766-14.203-5.766c-11.871,0-20.004,7.98-24.398,23.93c-2.297,7.301-3.879,14.654-4.746,22.055     c-0.855,7.4-1.289,16.482-1.289,27.24c0,5.191,0.141,9.949,0.434,14.273c0.281,4.324,0.668,8.361,1.148,12.111     s1.102,7.447,1.863,11.098s1.629,7.395,2.59,11.238c4.395,15.955,12.527,23.93,24.398,23.93c5.742,0,10.477-1.922,14.203-5.766     c3.738-3.844,6.844-9.896,9.34-18.164c1.148-3.844,2.098-7.541,2.871-11.098c0.762-3.551,1.383-7.254,1.863-11.098     s0.809-7.928,1.008-12.252C466.441,303.043,466.535,298.098,466.535,292.52z"/>
		</g>
	</g>
</svg>