<?xml version="1.0" encoding="iso-8859-1"?>
<!-- Generator: Adobe Illustrator 11.0, SVG Export Plug-In . SVG Version: 6.0.0 Build 78)  -->
<!DOCTYPE svg PUBLIC "-//W3C//DTD SVG 1.0//EN"    "http://www.w3.org/TR/2001/REC-SVG-20010904/DTD/svg10.dtd" [
	<!ENTITY ns_flows "http://ns.adobe.com/Flows/1.0/">
	<!ENTITY ns_svg "http://www.w3.org/2000/svg">
	<!ENTITY ns_xlink "http://www.w3.org/1999/xlink">
]>
<svg  xmlns="&ns_svg;" xmlns:xlink="&ns_xlink;" xmlns:a="http://ns.adobe.com/AdobeSVGViewerExtensions/3.0/"
	 width="600" height="600" viewBox="0 0 600 600" style="overflow:visible;enable-background:new 0 0 600 600" xml:space="preserve"
	>
	<g id="Layer_1">
		<g id="Shield_42_">
			<path id="Head_1_" style="fill:#FFFFFF;stroke: black;stroke-width: 15;" d="M69.375,304.5C58.5,303.375,40.86,310.506,36,297.75
				c-3-7.875,21.964-71.769,34.875-84C78,207,66.352,190.588,72,180c22.21-41.643,24.129-50.279,42.363-81.952
				c2.877-4.995,17.584-16.603,23.036-23.991C142.195,65.417,154.022,44.804,162,42c42.58-14.971,80.971-27.448,138.554-27.448
				c66.226,0,127.89,24.047,160.444,74.449C492,137.001,492,168.999,505.002,207c6.551,19.14,34.482,47.2,42,66
				c9.996,24.999-1.189,66.832-9,76.002c-23.004,27-67.096,50.338-74.004,63c-6,10.998-0.029,41.988,14.004,48
				c22.002-6.996,24.996-18,43.998-15c-10.998,21-6.967,29.607-9,36c-7.002,21.996-15.762,16.834-15,28.998
				c1.002,16.002,58.998,31.998,61.002,79.002H69.999c42-63,72.882-60.434,104.001-116.004c12.741-22.752,0.003-38.566-24.75-44.748
				c-29.637-7.4-82.875-3.375-87.375-28.5c-2.186-12.205,9.75-23.625,10.125-37.5c0.234-8.631-6.75-18.375-6.75-18.375
				S71.25,316.5,69.375,304.5z"/>
		</g>
		<g>
			<path d="M222.776,321.617c0,10.178-1.535,19.588-4.6,28.225s-7.277,16.125-12.639,22.459s-11.689,11.326-18.984,14.971
				s-15.264,5.473-23.9,5.473c-8.643,0-16.945-1.441-24.914-4.307c-7.969-2.871-15.504-7.084-22.605-12.639l18.146-19.559
				c4.793,3.264,9.211,5.666,13.242,7.201s8.449,2.303,13.254,2.303c5.18,0,9.979-1.102,14.396-3.305s8.209-5.32,11.379-9.352
				c3.164-4.031,5.66-8.824,7.488-14.391c1.822-5.561,2.736-11.701,2.736-18.416c0-10.547-2.402-18.791-7.201-24.738
				c-4.805-5.947-11.232-8.924-19.295-8.924c-8.449,0-16.131,3.17-23.045,9.504l-26.49-3.457l4.893-96.047h90.668v27h-65.033
				l-2.016,40.424c4.793-1.734,8.684-2.842,11.66-3.322s6.287-0.727,9.938-0.727c7.869,0,15.064,1.488,21.592,4.465
				c6.521,2.977,12.082,7.201,16.676,12.674s8.186,11.947,10.775,19.436C221.481,304.057,222.776,312.406,222.776,321.617z"/>
			<path d="M245.687,389.369c0.381-6.539,0.814-12.211,1.295-17.016s1.055-9.135,1.729-12.984c0.668-3.844,1.535-7.547,2.59-11.104
				s2.355-7.453,3.891-11.684c7.869-20.191,18.24-36.246,31.107-48.176c1.148-0.961,2.344-1.969,3.592-3.023
				s2.783-2.262,4.611-3.609c1.822-1.348,4.031-2.982,6.621-4.904s5.807-4.23,9.65-6.926c6.334-4.418,10.603-8.168,12.817-11.244
				c2.203-3.076,3.316-7.02,3.316-11.83c0-3.633-0.727-7.078-2.168-10.336s-3.352-6.129-5.757-8.619
				c-2.402-2.49-5.279-4.453-8.637-5.889c-3.363-1.436-6.867-2.156-10.512-2.156c-3.844,0-7.395,0.721-10.658,2.156
				c-3.27,1.436-6.1,3.398-8.496,5.889c-2.402,2.49-4.318,5.361-5.76,8.619s-2.162,6.703-2.162,10.336h-27.07
				c0.188-7.465,1.676-14.502,4.465-21.111c2.783-6.604,6.574-12.346,11.373-17.232c4.799-4.881,10.465-8.713,16.992-11.49
				s13.635-4.166,21.316-4.166c7.488,0,14.449,1.441,20.889,4.324c6.431,2.883,12.114,6.779,17.036,11.678
				s8.777,10.617,11.578,17.15c2.789,6.533,4.195,13.547,4.195,21.041c0,15.375-5.473,28.061-16.418,38.051
				c-0.961,0.773-1.969,1.494-3.023,2.162c-1.055,0.674-2.063,1.488-3.023,2.449l-6.621,4.904l-6.917,4.611l-7.488,5.479
				c-3.07,2.309-6.094,5.045-9.07,8.215s-5.859,6.627-8.643,10.377c-2.789,3.75-5.238,7.688-7.348,11.818
				c-2.109,4.137-3.838,8.221-5.18,12.252c-1.154,2.496-1.969,4.758-2.449,6.773s-1.107,4.758-1.869,8.215h78.05v27H245.687z"/>
			<path d="M490.277,331.057c0,9.223-1.242,17.584-3.738,25.078c-2.496,7.5-6.094,13.986-10.793,19.459
				c-4.699,5.479-10.406,9.709-17.121,12.686c-6.715,2.971-14.191,4.465-22.441,4.465c-17.648,0-30.984-6.088-40.008-18.264
				c-9.012-12.176-13.523-29.297-13.523-51.352c0-11.695,1.488-23.443,4.465-35.238c2.977-11.789,7.301-23.203,12.973-34.23
				c5.66-11.027,12.621-21.527,20.883-31.5s17.672-18.984,28.242-27.041l15.563,21.838c-4.043,3.07-8.121,6.709-12.258,10.922
				c-4.137,4.219-8.039,8.672-11.695,13.365s-6.926,9.527-9.809,14.508s-5.191,9.773-6.926,14.367c2.297-0.498,4.465-0.75,6.48-0.75
				s3.879,0,5.613,0c8.25,0,15.727,1.494,22.441,4.471s12.422,7.207,17.121,12.68c4.699,5.479,8.297,11.965,10.793,19.459
				C489.035,313.479,490.277,321.834,490.277,331.057z M463.277,331.156c0-10.371-2.484-18.826-7.465-25.359
				s-11.496-9.803-19.535-9.803c-8.238,0-14.789,3.076-19.676,9.223c-4.887,6.152-7.324,13.834-7.324,23.057
				c0,10.957,2.438,19.939,7.324,26.953s11.438,10.518,19.676,10.518c8.039,0,14.555-3.217,19.535-9.656
				C460.793,349.654,463.277,341.34,463.277,331.156z"/>
		</g>
	</g>
</svg>
