<svg xmlns="http://www.w3.org/2000/svg" xmlns:xlink="http://www.w3.org/1999/xlink" xmlns:a="http://ns.adobe.com/AdobeSVGViewerExtensions/3.0/" width="600" height="600" viewBox="0 0 600 600" style="overflow:visible;enable-background:new 0 0 600 600" xml:space="preserve" xmlns:xml="http://www.w3.org/XML/1998/namespace">
	<g id="Layer_1">
		<g id="Shield_211_">
			
			<path id="Head_1_" style="fill:#FFFFFF;stroke-width:15;stroke: black;" d="M69.375,304.5C58.5,303.375,40.86,310.506,36,297.75     c-3-7.875,21.964-71.769,34.875-84C78,207,66.352,190.588,72,180c22.21-41.643,24.129-50.279,42.363-81.952     c2.877-4.995,17.584-16.603,23.036-23.991C142.195,65.417,154.022,44.804,162,42c42.58-14.971,80.971-27.448,138.554-27.448     c66.226,0,127.89,24.047,160.444,74.449C492,137.001,492,168.999,505.002,207c6.551,19.14,34.482,47.2,42,66     c9.996,24.999-1.189,66.832-9,76.002c-23.004,27-67.096,50.338-74.004,63c-6,10.998-0.029,41.988,14.004,48     c22.002-6.996,24.996-18,43.998-15c-10.998,21-6.967,29.607-9,36c-7.002,21.996-15.762,16.834-15,28.998     c1.002,16.002,58.998,31.998,61.002,79.002H69.999c42-63,72.882-60.434,104.001-116.004c12.741-22.752,0.003-38.566-24.75-44.748     c-29.637-7.4-82.875-3.375-87.375-28.5c-2.186-12.205,9.75-23.625,10.125-37.5c0.234-8.631-6.75-18.375-6.75-18.375     S71.25,316.5,69.375,304.5z"/>
		</g>
		<g>
			<path d="M420.625,260.025c0,30.551-6.41,58.723-19.207,84.516c-12.809,25.793-31.875,47.191-57.211,64.184     c-16.125,11.824-33.185,20.18-51.185,25.078s-39.527,7.348-64.582,7.348v-52.5h5.18c14.684,0,27.715-1.289,39.094-3.891     c11.367-2.59,22.102-6.773,32.18-12.539c6.621-3.75,12.595-7.711,17.927-11.883c5.32-4.172,10.148-8.789,14.473-13.84     c4.313-5.039,8.426-10.734,12.316-17.074s7.559-13.406,11.016-21.188c-12.703,4.031-23.813,6.691-33.328,7.98     c-9.527,1.289-20.06,1.934-31.591,1.934c-15.879,0-30.457-2.227-43.723-6.703c-13.277-4.477-24.75-10.605-34.406-18.398     c-9.668-7.781-17.238-17.086-22.723-27.914c-5.484-10.816-8.227-22.57-8.227-35.273c0-12.973,2.73-24.867,8.215-35.695     c5.484-10.816,13.125-20.191,22.922-28.125s21.48-14.063,35.039-18.398c13.547-4.324,28.406-6.492,44.555-6.492     c18.164,0,34.661,2.672,49.521,8.004c14.848,5.332,27.891,12.891,39.141,22.688c12.105,10.664,20.895,23.203,26.379,37.617     S420.625,240.725,420.625,260.025z M359.875,229.873c0-11.016-5.578-19.934-16.711-26.754     c-11.133-6.809-25.676-10.219-43.603-10.219c-18.516,0-33.352,3.34-44.484,10.008s-16.699,15.656-16.699,26.965     c0,10.734,5.566,19.5,16.699,26.309c11.133,6.82,26.25,10.219,45.352,10.219c17.353,0,31.603-3.398,42.735-10.219     C354.297,249.373,359.875,240.607,359.875,229.873z"/>
		</g>
	</g>
</svg>