<svg xmlns="http://www.w3.org/2000/svg" xmlns:xlink="http://www.w3.org/1999/xlink" version="1.1" id="Layer_1" width="600" height="600" viewBox="0 0 600 600" overflow="visible" enable-background="new 0 0 600 600" xml:space="preserve" xmlns:xml="http://www.w3.org/XML/1998/namespace">
<g>
	
	<path d="M300,300"/>
</g>
<g style="
    stroke: rgb(0, 0, 0);  stroke-width: 15;
">
	<path fill-rule="evenodd" clip-rule="evenodd" fill="#FFFFFF" d="M300,10.0029297   c23.5644531,20.0751953,54.1171875,32.1914063,87.5,32.1914063S451.4355469,30.0751953,475,10l115,115   c-21.1621094,30.0810547-33.5878906,66.7539063-33.5878906,106.3261719c0,28.4638672,6.4267578,55.4248047,17.9101563,79.5126953   C584.2441406,331.6640625,590,355.3945313,590,380c0,88.3671875-71.6328125,160-160,160h-25.1132813   C362.5419922,540,324.7509766,559.4951172,300,590c-24.7514648-30.5048828-62.5419922-50-104.8867188-50h-25.1137695   c-88.3666992,0-160-71.6328125-160-160c0-24.6054688,5.7563477-48.3359375,15.6787109-69.1611328   c11.4824219-24.0878906,17.9101563-51.0488281,17.9101563-79.5126953C43.5883789,191.7539063,31.1616211,155.0810547,10,125L125,10   c23.5644531,20.0751953,54.1166992,32.1943359,87.5,32.1943359C245.8828125,42.1943359,276.4355469,30.078125,300,10.0029297z"/>
	
		<path fill-rule="evenodd" clip-rule="evenodd" fill="none" stroke="#000000" stroke-linecap="round" stroke-linejoin="round" stroke-miterlimit="3.863693" d="   M300,10.0029297c23.5644531,20.0751953,54.1171875,32.1914063,87.5,32.1914063S451.4355469,30.0751953,475,10l115,115   c-21.1621094,30.0810547-33.5878906,66.7539063-33.5878906,106.3261719c0,28.4638672,6.4267578,55.4248047,17.9101563,79.5126953   C584.2441406,331.6640625,590,355.3945313,590,380c0,88.3671875-71.6328125,160-160,160h-25.1132813   C362.5419922,540,324.7509766,559.4951172,300,590c-24.7514648-30.5048828-62.5419922-50-104.8867188-50h-25.1137695   c-88.3666992,0-160-71.6328125-160-160c0-24.6054688,5.7563477-48.3359375,15.6787109-69.1611328   c11.4824219-24.0878906,17.9101563-51.0488281,17.9101563-79.5126953C43.5883789,191.7539063,31.1616211,155.0810547,10,125L125,10   c23.5644531,20.0751953,54.1166992,32.1943359,87.5,32.1943359C245.8828125,42.1943359,276.4355469,30.078125,300,10.0029297z"/>
</g>
<path fill-rule="evenodd" clip-rule="evenodd" d="M398.7011719,434.8056641H201.2988281  c0.8657227-32.3232422,8.9462891-61.7607422,24.2421875-88.3115234  c11.8325195-20.7792969,28.8603516-39.5380859,51.0825195-56.2773438c3.1743164-2.0205078,7.503418-5.0507813,12.9868164-9.0908203  l15.1513672-8.2255859l28.5712891-16.0166016c12.9873047-7.5039063,19.4814453-18.0380859,19.4814453-31.6025391  c0-10.6777344-5.2675781-19.7685547-15.8007813-27.2724609C326.4785156,190.5058594,314.1416016,186.7539063,300,186.7539063  c-30.0146484,0-47.6191406,13.5634766-52.8139648,40.6914063l-45.887207-10.3886719  c4.90625-23.9541016,16.2333984-42.7851563,33.9824219-56.4931641C253.0302734,146.8544922,274.6030273,140,300,140  c27.4169922,0,50.7216797,8.3701172,69.9130859,25.1083984c19.1923828,16.7392578,28.7880859,37.0849609,28.7880859,61.0390625  c0,24.2421875-9.8125,45.0214844-29.4375,62.3369141c-3.7519531,3.1757813-7.9355469,5.7724609-12.5537109,7.7929688  l-14.2861328,9.5234375l-15.1513672,7.7929688l-14.2851563,8.2246094  c-24.8198242,14.4296875-43.7231445,36.5078125-56.7099609,66.234375h142.4238281V434.8056641z"/>
</svg>